PathFileType	4	(X/Y/Z)	S1_nor_slow_right.trc
DataRate	CameraRate	NumFrames	NumMarkers	Units	OrigDataRate	OrigDataStartFrame	OrigNumFrames
250.00	250.00	8	18	mm	250.00	2473	9891
Frame#	Time	c7	r_should	l_should	clavicle	r_upa	r_elb_l	r_elb_m	r_low	r_wri_l	r_wri_m	r_met	l_upa	l_elb_l	l_elb_m	l_low	l_wri_l	l_wri_m	l_met
	X1	Y1	Z1	X2	Y2	Z2	X3	Y3	Z3	X4	Y4	Z4	X5	Y5	Z5	X6	Y6	Z6	X7	Y7	Z7	X8	Y8	Z8	X9	Y9	Z9	X10	Y10	Z10	X11	Y11	Z11	X12	Y12	Z12	X13	Y13	Z13	X14	Y14	Z14	X15	Y15	Z15	X16	Y16	Z16	X17	Y17	Z17	X18	Y18	Z18
2473	9.88800	884.70605	1427.83313	85.44620	945.92853	1345.54126	262.15799	919.30701	1365.57471	-107.72357	1011.12079	1297.55359	67.80058	946.27838	1137.16699	310.60110	965.90302	1080.50061	316.63263	942.30664	1024.31799	232.43806	1070.47180	1029.77087	276.91089	1152.13123	1101.49036	287.82748	1146.89722	1077.93677	216.65541	1238.92297	1104.90149	290.56390	907.76270	1145.49402	-151.77238	910.63019	1059.31421	-165.61665	843.53680	1037.16333	-87.77507	854.56903	920.97913	-179.10336	923.81702	825.76642	-161.41902	852.60559	820.33679	-175.76903	935.45050	749.32147	-183.08879
2474	9.89200	884.75476	1427.82104	85.49438	945.93933	1345.52051	262.19745	919.40057	1365.59485	-107.68458	1011.20947	1297.58435	67.84246	946.45105	1137.12512	310.54706	966.00769	1080.61145	316.51877	942.52411	1024.45203	232.19150	1070.70447	1030.46033	276.67068	1151.95569	1102.60413	287.61047	1146.80579	1079.14062	216.39647	1238.63147	1106.48853	290.27859	907.84393	1145.51257	-151.72296	910.70319	1059.33093	-165.56931	843.60791	1037.18311	-87.70809	854.62177	920.99054	-179.02853	923.82623	825.95160	-161.45177	852.63568	820.34808	-175.68576	935.46942	749.31750	-182.97626
2475	9.89600	884.81042	1427.80200	85.55930	945.95099	1345.49744	262.23566	919.49536	1365.61658	-107.64257	1011.29974	1297.60645	67.88155	946.63940	1137.08142	310.48730	966.11670	1080.73206	316.39841	942.74542	1024.71143	231.79449	1070.95764	1031.15063	276.44037	1151.76025	1103.73755	287.41724	1146.69971	1080.33533	216.14735	1238.33704	1108.06567	290.00735	907.92133	1145.53296	-151.67630	910.77686	1059.34399	-165.52184	843.68597	1037.20593	-87.62979	854.67365	921.00372	-178.95694	923.83765	826.13361	-161.48483	852.66699	820.36066	-175.60709	935.48517	749.31299	-182.88115
2476	9.90000	884.87329	1427.78784	85.61077	945.97223	1345.46655	262.27557	919.59210	1365.63269	-107.59641	1011.39178	1297.62939	67.92815	946.83081	1137.01331	310.40378	966.23779	1080.84863	316.27863	942.98114	1024.79175	231.58179	1071.23511	1031.84534	276.20078	1151.58508	1104.85486	287.18411	1146.59021	1081.51294	215.87587	1238.06494	1109.63330	289.75833	907.99408	1145.54785	-151.63441	910.84827	1059.35596	-165.46680	843.76233	1037.22449	-87.55833	854.72546	921.01495	-178.88547	923.84888	826.31482	-161.51950	852.69891	820.37537	-175.54018	935.49847	749.30707	-182.77899
2477	9.90400	884.93121	1427.76538	85.65909	945.99805	1345.43140	262.31958	919.67902	1365.64868	-107.55304	1011.48676	1297.65271	67.97260	947.01312	1136.94763	310.32251	966.36487	1080.96277	316.15640	943.22858	1024.83472	231.39163	1071.48022	1032.53894	275.94775	1151.31921	1106.01184	286.93985	1146.47632	1082.70886	215.59366	1237.74451	1111.19360	289.52972	908.05890	1145.56726	-151.59505	910.90991	1059.36243	-165.42099	843.84198	1037.24951	-87.49101	854.77625	921.03015	-178.81699	923.79309	826.25714	-161.37645	852.73364	820.38531	-175.46614	935.51624	749.29553	-182.68031
2478	9.90800	884.98669	1427.74316	85.71398	946.01880	1345.40271	262.36093	919.75922	1365.66956	-107.51116	1011.58533	1297.66992	68.01749	947.20319	1136.90906	310.25635	966.49292	1081.09497	316.03729	943.42810	1024.87756	231.21881	1071.69214	1033.22595	275.69531	1150.85376	1107.30212	286.75885	1146.34851	1083.86987	215.32939	1237.41943	1112.77002	289.29095	908.12396	1145.58191	-151.55481	910.96460	1059.37183	-165.38225	843.91998	1037.28003	-87.42825	854.82227	921.04364	-178.74902	923.65527	825.86194	-160.97939	852.76538	820.40204	-175.39917	935.52319	749.28180	-182.57619
2479	9.91200	885.04272	1427.70874	85.77754	946.04358	1345.36975	262.39392	919.83728	1365.68762	-107.46786	1011.67920	1297.69043	68.05305	947.37952	1136.87048	310.17456	966.61584	1081.21875	315.92490	943.55249	1024.79272	231.16823	1071.91748	1033.90991	275.43610	1150.59167	1108.45801	286.53479	1146.20203	1085.05896	215.05898	1237.06555	1114.28638	289.04587	908.17950	1145.59302	-151.51788	911.01141	1059.38440	-165.35011	843.99487	1037.30798	-87.37421	854.86938	921.05695	-178.68765	923.64630	825.76898	-160.82254	852.79419	820.42700	-175.33450	935.52863	749.26758	-182.47980
2480	9.91600	885.10260	1427.67786	85.83910	946.08221	1345.33777	262.43692	919.91168	1365.70825	-107.42170	1011.77429	1297.70654	68.08121	947.55786	1136.80920	310.06641	966.73969	1081.33923	315.81421	943.67236	1024.68982	231.11490	1072.12341	1034.59668	275.16983	1150.37305	1109.56335	286.30783	1146.07349	1086.23975	214.76245	1236.68872	1116.11938	288.96530	908.23590	1145.60571	-151.48000	911.06750	1059.38965	-165.31097	844.06348	1037.33496	-87.32069	854.91205	921.07605	-178.62636	923.66547	825.75281	-160.73502	852.82733	820.44019	-175.27643	935.53802	749.25635	-182.40598
